<svg version="1.1" xmlns="http://www.w3.org/2000/svg" viewBox="0 0 934.5 317.5" width="934.5" height="317.5">
  <!-- svg-source:excalidraw -->
  
  <defs>
    <style>
      @font-face {
        font-family: "Virgil";
        src: url("https://excalidraw.com/Virgil.woff2");
      }
      @font-face {
        font-family: "Cascadia";
        src: url("https://excalidraw.com/Cascadia.woff2");
      }
    </style>
  </defs>
  <rect x="0" y="0" width="934.5" height="317.5" fill="#ffffff"></rect><g stroke-linecap="round" transform="translate(10 23) rotate(0 80.5 41.5)"><path d="M-1.89 -0.71 C37.15 -1.66, 73.43 0, 159.3 -0.5 M-0.13 0.38 C37.9 1.41, 77.35 0.29, 160.6 0.73 M162.06 -1.52 C159.5 22.17, 159.93 39.41, 161.18 82.21 M161.03 -0.67 C161.73 30.56, 160.91 62.49, 160.63 82.72 M159.5 83.41 C98.42 83.56, 35.96 86.54, 1.61 82.19 M161.47 83.26 C128.14 83.23, 94.47 83.3, 0.48 83.25 M-0.28 84.5 C1.21 53.24, 0.16 21.37, -0.03 1.91 M-0.51 83.86 C-0.91 56.84, 0.69 30.72, 0.68 -1" stroke="#000000" stroke-width="1" fill="none"></path></g><g transform="translate(15 52) rotate(0 75.5 12.5)"><text x="75.5" y="18" font-family="Virgil, Segoe UI Emoji" font-size="20px" fill="#000000" text-anchor="middle" style="white-space: pre;" direction="ltr">front-end</text></g><g stroke-linecap="round" transform="translate(418.5 24.5) rotate(0 80.5 41.5)"><path d="M0.25 1.63 C38.71 0.62, 72.48 -0.57, 159.63 0.85 M-0.96 -0.92 C55.83 0.05, 111.45 0.82, 160.88 -0.96 M159.21 1.78 C160.8 20.74, 161.84 42.21, 159.54 84.12 M161.15 -0.53 C159.65 19.78, 159.55 38.85, 160.05 83.46 M161.22 84.29 C120.01 84.28, 81.93 83.22, -0.54 84.98 M160.11 82.41 C123.34 81.63, 83.82 82.03, -0.71 83.85 M-1.28 81.9 C0.16 64.39, -0.57 45.01, -0.54 1.94 M-0.79 82.31 C-0.91 55.26, -0.88 26.55, 0.04 -0.52" stroke="#000000" stroke-width="1" fill="none"></path></g><g transform="translate(423.5 53.5) rotate(0 75.5 12.5)"><text x="75.5" y="18" font-family="Virgil, Segoe UI Emoji" font-size="20px" fill="#000000" text-anchor="middle" style="white-space: pre;" direction="ltr">API</text></g><g stroke-linecap="round" transform="translate(415.5 224.5) rotate(0 80.5 41.5)"><path d="M0.29 -0.85 C35.62 2, 72.52 1.16, 161.57 0.37 M0.9 0.45 C43.41 -2.26, 86.89 -2.06, 161.25 -0.06 M159.84 -1.21 C162.06 22.96, 163.4 42.33, 162.74 84.17 M160.44 -0.55 C160.05 33.22, 161.8 65.8, 161.36 82.71 M159.53 82.76 C110.68 82.79, 63.45 85.57, -1.27 82.4 M160.28 82.39 C102.67 84.89, 43.22 84.02, 0.55 83.96 M-1.55 84.75 C1.79 53.98, 0.44 26.59, 0.53 -1.69 M-0.71 83.26 C-0.56 62.38, -0.56 42.72, -0.27 0.66" stroke="#000000" stroke-width="1" fill="none"></path></g><g transform="translate(420.5 253.5) rotate(0 75.5 12.5)"><text x="75.5" y="18" font-family="Virgil, Segoe UI Emoji" font-size="20px" fill="#000000" text-anchor="middle" style="white-space: pre;" direction="ltr">Database</text></g><g stroke-linecap="round" transform="translate(763.5 23.5) rotate(0 80.5 41.5)"><path d="M-0.62 -1.64 C55.75 2.02, 113.23 2.05, 161.59 -0.16 M0.66 -0.34 C50.4 -0.26, 100.67 -1.13, 161.96 0.87 M160.59 0.32 C159.72 28.56, 161.29 60.08, 161.95 83.2 M162 -0.11 C161.16 18.34, 160.67 36.09, 160.02 82.11 M160.92 81.02 C119.97 81.9, 77.63 82.72, 1.79 84.18 M160.69 82.45 C124.31 82.92, 87.71 82.82, 0.28 83.41 M0.83 81.77 C-0.74 56.76, 0.54 25.83, 0.83 0.22 M-0.38 83.33 C-1.53 57.4, -1.13 32.07, 0.98 -0.53" stroke="#000000" stroke-width="1" fill="none"></path></g><g transform="translate(768.5 52.5) rotate(0 75.5 12.5)"><text x="75.5" y="18" font-family="Virgil, Segoe UI Emoji" font-size="20px" fill="#000000" text-anchor="middle" style="white-space: pre;" direction="ltr">Bucket</text></g><g stroke-linecap="round"><g transform="translate(177 42) rotate(0 118.30359050435942 -0.06678895128891327)"><path d="M0.42 0.23 C40.16 0, 198.15 -0.59, 237.43 -0.87 M-0.82 -0.7 C38.89 -0.75, 196.81 0.68, 236.7 0.74" stroke="#000000" stroke-width="1" fill="none"></path></g><g transform="translate(177 42) rotate(0 118.30359050435942 -0.06678895128891327)"><path d="M208.84 11.55 C214.73 7.07, 219.88 6.02, 235.39 -1.01 M208.69 10.34 C219.48 7.16, 231.01 3.7, 236.12 0" stroke="#000000" stroke-width="1" fill="none"></path></g><g transform="translate(177 42) rotate(0 118.30359050435942 -0.06678895128891327)"><path d="M208.95 -8.97 C214.91 -9.02, 220.03 -5.63, 235.39 -1.01 M208.81 -10.18 C219.37 -5.41, 230.85 -0.92, 236.12 0" stroke="#000000" stroke-width="1" fill="none"></path></g></g><g transform="translate(261 10) rotate(0 38 12.5)"><text x="0" y="18" font-family="Virgil, Segoe UI Emoji" font-size="20px" fill="#000000" text-anchor="start" style="white-space: pre;" direction="ltr">request</text></g><g stroke-linecap="round"><g transform="translate(599 43.99999999999994) rotate(0 75.85422350499783 0.4069507268017958)"><path d="M0.15 -0.71 C25.47 -0.84, 125.65 -0.19, 150.84 -0.18 M-1.23 1.54 C24.54 1.53, 127.1 1.46, 152.94 1.27" stroke="#000000" stroke-width="1" fill="none"></path></g><g transform="translate(599 43.99999999999994) rotate(0 75.85422350499783 0.4069507268017958)"><path d="M123.61 9.7 C130.28 8.24, 135.38 9.13, 153.23 1.26 M125.25 11.65 C135.05 8.18, 145.8 4.81, 153.4 2.19" stroke="#000000" stroke-width="1" fill="none"></path></g><g transform="translate(599 43.99999999999994) rotate(0 75.85422350499783 0.4069507268017958)"><path d="M123.54 -10.83 C130.33 -8.02, 135.45 -2.87, 153.23 1.26 M125.18 -8.87 C134.86 -4.55, 145.64 -0.13, 153.4 2.19" stroke="#000000" stroke-width="1" fill="none"></path></g></g><g transform="translate(615 11) rotate(0 56.5 12.5)"><text x="0" y="18" font-family="Virgil, Segoe UI Emoji" font-size="20px" fill="#000000" text-anchor="start" style="white-space: pre;" direction="ltr">static files</text></g><g stroke-linecap="round"><g transform="translate(749 84) rotate(0 -74.04083927961062 -0.8691691145580194)"><path d="M-0.4 0.3 C-25.4 0.15, -124.03 0.03, -148.82 -0.29 M1.59 -0.59 C-23.65 -1.14, -124.41 -2.04, -149.67 -2.04" stroke="#000000" stroke-width="1" fill="none"></path></g><g transform="translate(749 84) rotate(0 -74.04083927961062 -0.8691691145580194)"><path d="M-120.92 -11.85 C-131.42 -8.46, -144.84 -4.53, -151.04 -3.14 M-121.45 -12.15 C-130.83 -9.39, -141.37 -5.26, -150.48 -2.78" stroke="#000000" stroke-width="1" fill="none"></path></g><g transform="translate(749 84) rotate(0 -74.04083927961062 -0.8691691145580194)"><path d="M-121.03 8.67 C-131.6 3.9, -144.97 -0.33, -151.04 -3.14 M-121.56 8.37 C-131 4.2, -141.5 1.4, -150.48 -2.78" stroke="#000000" stroke-width="1" fill="none"></path></g></g><g transform="translate(637 87) rotate(0 48.5 12.5)"><text x="0" y="18" font-family="Virgil, Segoe UI Emoji" font-size="20px" fill="#000000" text-anchor="start" style="white-space: pre;" direction="ltr">files path</text></g><g stroke-linecap="round"><g transform="translate(473 120) rotate(0 0.5716569469006458 46.82246354483067)"><path d="M-0.45 -1.03 C-0.13 14.79, 0.98 78.81, 1.06 94.68 M1.51 1.04 C1.85 16.53, 1.04 77.16, 0.67 92.91" stroke="#000000" stroke-width="1" fill="none"></path></g><g transform="translate(473 120) rotate(0 0.5716569469006458 46.82246354483067)"><path d="M-10.83 66.31 C-5.83 71.01, -4.5 77.97, -0.32 93.3 M-10.03 64.95 C-7.67 71.45, -4.6 79.45, 0.29 93.01" stroke="#000000" stroke-width="1" fill="none"></path></g><g transform="translate(473 120) rotate(0 0.5716569469006458 46.82246354483067)"><path d="M9.69 66.67 C10.07 71.21, 6.77 78.09, -0.32 93.3 M10.48 65.3 C7.48 71.55, 5.19 79.45, 0.29 93.01" stroke="#000000" stroke-width="1" fill="none"></path></g></g><g stroke-linecap="round"><g transform="translate(506 210) rotate(0 1.088203521462276 -43.05349191091955)"><path d="M1.19 1.04 C1.09 -5.35, -0.31 -24.01, -0.48 -38.71 C-0.66 -53.41, 0.08 -79, 0.16 -87.15 M0.36 0.54 C0.61 -6.15, 1.34 -26.01, 1.71 -40.42 C2.09 -54.82, 2.95 -78.17, 2.61 -85.91" stroke="#000000" stroke-width="1" fill="none"></path></g><g transform="translate(506 210) rotate(0 1.088203521462276 -43.05349191091955)"><path d="M12.52 -65.25 C9.62 -71.89, 5.51 -79.16, 1.58 -85.39 M10.71 -62.89 C8.55 -69.7, 6.29 -74.27, 2.19 -86.13" stroke="#000000" stroke-width="1" fill="none"></path></g><g transform="translate(506 210) rotate(0 1.088203521462276 -43.05349191091955)"><path d="M-3.73 -65.21 C-1.55 -72.02, -0.6 -79.31, 1.58 -85.39 M-5.54 -62.85 C-3.61 -69.83, -1.78 -74.41, 2.19 -86.13" stroke="#000000" stroke-width="1" fill="none"></path></g></g><g transform="translate(293 150) rotate(0 84 12.5)"><text x="0" y="18" font-family="Virgil, Segoe UI Emoji" font-size="20px" fill="#000000" text-anchor="start" style="white-space: pre;" direction="ltr">CRUD operations</text></g><g stroke-linecap="round"><g transform="translate(399 87) rotate(0 -110.91240059312435 -0.5812525050155841)"><path d="M-0.52 0.44 C-37.64 0.42, -185.46 0.28, -222.53 0.34 M1.41 -0.38 C-35.85 -0.82, -185.72 -1.49, -223.24 -1.6" stroke="#000000" stroke-width="1" fill="none"></path></g><g transform="translate(399 87) rotate(0 -110.91240059312435 -0.5812525050155841)"><path d="M-194.27 -10.97 C-203.39 -8.55, -211.56 -4.77, -222.06 0.34 M-194.05 -11.09 C-201.38 -8.72, -208.61 -7.43, -223.95 -1.42" stroke="#000000" stroke-width="1" fill="none"></path></g><g transform="translate(399 87) rotate(0 -110.91240059312435 -0.5812525050155841)"><path d="M-194.36 9.55 C-203.52 5.43, -211.67 2.67, -222.06 0.34 M-194.13 9.43 C-201.51 7.09, -208.73 3.66, -223.95 -1.42" stroke="#000000" stroke-width="1" fill="none"></path></g></g><g transform="translate(259 92) rotate(0 41.5 12.5)"><text x="0" y="18" font-family="Virgil, Segoe UI Emoji" font-size="20px" fill="#000000" text-anchor="start" style="white-space: pre;" direction="ltr">response</text></g></svg>